<?xml version="1.0" encoding="UTF-8" standalone="no"?><!DOCTYPE svg PUBLIC "-//W3C//DTD SVG 1.1//EN" "http://www.w3.org/Graphics/SVG/1.1/DTD/svg11.dtd"><svg width="100%" height="100%" viewBox="0 0 32 32" version="1.1" xmlns="http://www.w3.org/2000/svg" xmlns:xlink="http://www.w3.org/1999/xlink" xml:space="preserve" xmlns:serif="http://www.serif.com/" style="fill-rule:evenodd;clip-rule:evenodd;stroke-linejoin:round;stroke-miterlimit:2;"><circle cx="16" cy="16" r="15" style="fill:#241f31;"/><path d="M7.5,12l0,8c0,0.823 -0.677,1.5 -1.5,1.5c-0.823,0 -1.5,-0.677 -1.5,-1.5l0,-8c0,-0.823 0.677,-1.5 1.5,-1.5c0.823,0 1.5,0.677 1.5,1.5Zm3.5,-9.5c-0.823,0 -1.5,0.677 -1.5,1.5l0,24c0,0.823 0.677,1.5 1.5,1.5c0.823,0 1.5,-0.677 1.5,-1.5l0,-24c0,-0.823 -0.677,-1.5 -1.5,-1.5Zm5,4c-0.823,0 -1.5,0.677 -1.5,1.5l0,16c0,0.823 0.677,1.5 1.5,1.5c0.823,0 1.5,-0.677 1.5,-1.5l0,-16c0,-0.823 -0.677,-1.5 -1.5,-1.5Zm5,4c-0.823,0 -1.5,0.677 -1.5,1.5l0,8c0,0.823 0.677,1.5 1.5,1.5c0.823,0 1.5,-0.677 1.5,-1.5l0,-8c0,-0.823 -0.677,-1.5 -1.5,-1.5Zm5,-2c-0.823,0 -1.5,0.677 -1.5,1.5l0,12c0,0.823 0.677,1.5 1.5,1.5c0.823,0 1.5,-0.677 1.5,-1.5l0,-12c0,-0.823 -0.677,-1.5 -1.5,-1.5Z" style="fill:#3584e4;fill-rule:nonzero;"/></svg>